<?xml version="1.0" standalone="no"?><!DOCTYPE svg PUBLIC "-//W3C//DTD SVG 1.1//EN" "http://www.w3.org/Graphics/SVG/1.1/DTD/svg11.dtd"><svg t="1515598394918" class="icon" style="" viewBox="0 0 1024 1024" version="1.1" xmlns="http://www.w3.org/2000/svg" p-id="1868" xmlns:xlink="http://www.w3.org/1999/xlink" width="60" height="60"><defs><style type="text/css"></style></defs><path d="M998.137292 837.826328l-0.542704-1.25859L855.028547 581.715321c-8.248296-14.738594-26.915705-20.034741-41.74089-11.830747-14.80404 8.205001-20.121332 26.785818-11.873036 41.524412l141.133262 252.355375c5.621367 13.132633 4.341632 19.925999 3.320664 21.445369-0.520553 0.824628-2.430589 1.432779-4.601405 1.432779L515.11054 886.642508l49.077967-57.217521c11.005112-12.828557 9.463591-32.125261-3.450551-43.064927-12.871853-10.940672-32.234003-9.399151-43.26026 3.429406l-85.08774 99.197039c-11.005112 12.828557-9.463591 32.125261 3.430413 43.064927l99.738736 84.653779c5.774411 4.905481 12.828557 7.293781 19.904855 7.293781 8.661114 0 17.277925-3.62474 23.355405-10.701037 11.005112-12.828557 9.464598-32.080959-3.429406-43.042775l-26.590485-22.574072 392.468675 0c23.160072 0 44.128183-10.89637 56.088817-29.173112C1005.517664 905.983514 1016.478474 878.872476 998.137292 837.826328L998.137292 837.826328 998.137292 837.826328 998.137292 837.826328zM691.777325 415.381057l-41.132739-15.324593c-15.845146-5.947593-33.557033 2.062074-39.504627 17.84278-5.968738 15.801851 2.084225 33.404996 17.972667 39.309294l122.747778 45.821742c3.538149 1.302892 7.185039 1.932188 10.766483 1.932188 12.41574 0 24.115594-7.554561 28.73915-19.818264l46.03822-122.118482c5.947593-15.801851-2.084225-33.383851-17.950516-39.3103-15.867297-5.925442-33.579184 2.084225-39.526778 17.863925l-23.833669 63.230561L558.826913 52.129796c-11.613263-22.703959-30.345111-35.684554-51.443109-35.684554l-0.065447 0c-22.226702 0.021144-42.044965 14.087148-54.525145 38.571256L336.317241 261.008434c-8.312736 14.694291-3.082035 33.319411 11.699854 41.588852 14.760745 8.248296 33.492593 3.03874 41.784185-11.655551L506.623615 84.341648 691.777325 415.381057 691.777325 415.381057 691.777325 415.381057 691.777325 415.381057zM311.268277 405.028398c-2.300703-8.11841-7.726736-14.543261-14.586556-18.342189-6.858813-3.798928-15.1937-4.993079-23.334261-2.691369l-126.090593 35.706705c-16.301259 4.601405-25.76485 21.488664-21.120149 37.703333 3.842224 13.435701 16.12707 22.205557 29.498332 22.205557 2.778967 0 5.622374-0.390666 8.421478-1.19415l58.715746-16.605335L5.42987 846.161216l-0.99781 3.515997c-7.619001 27.132182-3.97211 52.37648 10.288219 71.087184 13.045035 17.104743 33.709071 26.915705 56.674817 26.915705l230.887855 0c16.952706 0 30.692482-13.67433 30.692482-30.518293 0-16.866115-13.739777-30.518293-30.692482-30.518293L71.395095 886.643515c-1.693559 0-5.861002-0.281924-7.771039-2.77796-1.58381-2.084225-2.51718-6.924259-0.867924-14.522116L273.60824 496.454398l14.499965 50.705072c3.842224 13.435701 16.128077 22.205557 29.520483 22.205557 2.77796 0 5.578071-0.390666 8.400334-1.171999 16.301259-4.623557 25.76485-21.488664 21.120149-37.724477L311.268277 405.028398 311.268277 405.028398 311.268277 405.028398 311.268277 405.028398z" fill="#a2fe01" p-id="1869"></path></svg>