<?xml version="1.0" standalone="no"?><!DOCTYPE svg PUBLIC "-//W3C//DTD SVG 1.1//EN" "http://www.w3.org/Graphics/SVG/1.1/DTD/svg11.dtd"><svg t="1515598639298" class="icon" style="" viewBox="0 0 1024 1024" version="1.1" xmlns="http://www.w3.org/2000/svg" p-id="4160" xmlns:xlink="http://www.w3.org/1999/xlink" width="60" height="60"><defs><style type="text/css"></style></defs><path d="M617.813333 358.4c-29.013333-29.013333-66.56-46.08-107.52-46.08s-80.213333 17.066667-109.226666 46.08c-29.013333 29.013333-46.08 68.266667-46.08 109.226667v242.346666h308.906666V467.626667c0-40.96-15.36-78.506667-46.08-109.226667z m-116.053333 290.133333v-109.226666h-54.613333l75.093333-139.946667V512h52.906667l-73.386667 136.533333z m116.053333-290.133333c-29.013333-29.013333-66.56-46.08-107.52-46.08s-80.213333 17.066667-109.226666 46.08c-29.013333 29.013333-46.08 68.266667-46.08 109.226667v242.346666h308.906666V467.626667c0-40.96-15.36-78.506667-46.08-109.226667z m-116.053333 290.133333v-109.226666h-54.613333l75.093333-139.946667V512h52.906667l-73.386667 136.533333z m116.053333-290.133333c-29.013333-29.013333-66.56-46.08-107.52-46.08s-80.213333 17.066667-109.226666 46.08c-29.013333 29.013333-46.08 68.266667-46.08 109.226667v242.346666h308.906666V467.626667c0-40.96-15.36-78.506667-46.08-109.226667z m-116.053333 290.133333v-109.226666h-54.613333l75.093333-139.946667V512h52.906667l-73.386667 136.533333z m116.053333-290.133333c-29.013333-29.013333-66.56-46.08-107.52-46.08s-80.213333 17.066667-109.226666 46.08c-29.013333 29.013333-46.08 68.266667-46.08 109.226667v242.346666h308.906666V467.626667c0-40.96-15.36-78.506667-46.08-109.226667z m-116.053333 290.133333v-109.226666h-54.613333l75.093333-139.946667V512h52.906667l-73.386667 136.533333zM750.933333 0H273.066667C122.88 0 0 122.88 0 273.066667v477.866666c0 150.186667 122.88 273.066667 273.066667 273.066667h477.866666c150.186667 0 273.066667-122.88 273.066667-273.066667V273.066667c0-150.186667-122.88-273.066667-273.066667-273.066667z m-5.12 750.933333H278.186667c-11.946667 0-20.48-8.533333-20.48-20.48s8.533333-20.48 20.48-20.48h37.546666V467.626667c0-25.6 5.12-51.2 15.36-76.8 10.24-23.893333 23.893333-44.373333 42.666667-61.44 17.066667-17.066667 39.253333-32.426667 61.44-42.666667 23.893333-10.24 49.493333-15.36 76.8-15.36 25.6 0 51.2 5.12 75.093333 15.36 23.893333 10.24 44.373333 23.893333 63.146667 42.666667s32.426667 39.253333 42.666667 61.44c10.24 23.893333 15.36 49.493333 15.36 76.8v242.346666h40.96c11.946667 0 22.186667 8.533333 22.186666 20.48-3.413333 11.946667-13.653333 20.48-25.6 20.48zM510.293333 314.026667c-40.96 0-80.213333 17.066667-109.226666 46.08-29.013333 29.013333-46.08 68.266667-46.08 109.226666v242.346667h308.906666V469.333333c0-40.96-15.36-80.213333-46.08-109.226666-29.013333-30.72-66.56-46.08-107.52-46.08zM501.76 648.533333v-109.226666h-54.613333l75.093333-139.946667V512h52.906667l-73.386667 136.533333z m116.053333-290.133333c-29.013333-29.013333-66.56-46.08-107.52-46.08s-80.213333 17.066667-109.226666 46.08c-29.013333 29.013333-46.08 68.266667-46.08 109.226667v242.346666h308.906666V467.626667c0-40.96-15.36-78.506667-46.08-109.226667z m-116.053333 290.133333v-109.226666h-54.613333l75.093333-139.946667V512h52.906667l-73.386667 136.533333z m116.053333-290.133333c-29.013333-29.013333-66.56-46.08-107.52-46.08s-80.213333 17.066667-109.226666 46.08c-29.013333 29.013333-46.08 68.266667-46.08 109.226667v242.346666h308.906666V467.626667c0-40.96-15.36-78.506667-46.08-109.226667z m-116.053333 290.133333v-109.226666h-54.613333l75.093333-139.946667V512h52.906667l-73.386667 136.533333z" fill="#3399FF" p-id="4161"></path></svg>