<?xml version="1.0" standalone="no"?><!DOCTYPE svg PUBLIC "-//W3C//DTD SVG 1.1//EN" "http://www.w3.org/Graphics/SVG/1.1/DTD/svg11.dtd"><svg t="1515598503674" class="icon" style="" viewBox="0 0 1024 1024" version="1.1" xmlns="http://www.w3.org/2000/svg" p-id="3600" xmlns:xlink="http://www.w3.org/1999/xlink" width="60" height="60"><defs><style type="text/css"></style></defs><path d="M924.381653 833.685513 125.700375 833.685513l0-92.860944c0.196475-0.783853 0.597611-1.566682 0.794086-2.460028 20.117177-90.006943 61.649082-197.978027 144.503115-247.400646 120.92614-72.132854 186.144514 117.898177 285.352003 146.986679 116.461455 34.18252 202.985064-50.511417 237.777475-149.642159 0.327458-0.931209 0.649799-1.89107 0.968048-2.862187 41.684378-3.0208 89.313142-11.760858 144.121422-26.295899 14.913665-3.954055 23.880897-19.581987 20.033265-34.902928-3.849678-15.32401-19.061125-24.536836-33.970696-20.582781-43.886533 11.638061-82.791611 19.285229-117.053949 22.983457 16.565281-94.26492 33.040511-230.502791 121.489982-234.879472 39.649022-1.959631 39.845497-63.272046-0.098237-61.312414-122.111129 6.009877-146.986679 130.787742-167.298284 228.54623-4.689812 22.541389-9.031701 46.312792-14.653745 69.864184-21.98471-1.085728-41.309848-4.527107-58.091046-10.339486-44.792159-15.514345-70.080102-46.715975-99.363032-82.8438-16.906042-20.860097-34.388205-42.429345-56.951083-62.783928-89.192392-80.476893-195.775872-102.910834-308.22699-64.877613-40.508599 13.701047-74.687026 32.895201-99.333356 49.197492L125.699352 95.946212c0-16.918321-13.879102-30.677697-30.91715-30.677697-17.059538 0-30.928407 13.759375-30.928407 30.677697l0 768.395508c0 16.894785 13.868869 30.633694 30.928407 30.633694l829.598428 0c17.038048 0 30.91715-13.738909 30.91715-30.633694C955.298803 847.422376 941.419701 833.685513 924.381653 833.685513zM125.700375 327.607386c14.83794-12.187577 59.500139-46.134737 118.423133-65.709561 93.319385-31.006178 178.219008-12.815887 252.338099 54.05922 19.292392 17.405415 35.357276 37.226856 50.894134 56.395428 31.791054 39.22435 64.664765 79.784114 124.403335 100.476389 17.83725 6.178723 37.329187 10.282181 58.732659 12.316513-9.16473 23.155373-21.156856 44.805462-37.854143 63.297628-59.168588 65.621557-149.361773 28.782533-195.454554-27.214828-72.850192-88.440262-182.070732-149.838633-287.037389-63.09706-34.486442 28.609595-62.138222 65.339124-84.444251 105.529475L125.701398 327.607386z" p-id="3601"></path></svg>