<?xml version="1.0" standalone="no"?><!DOCTYPE svg PUBLIC "-//W3C//DTD SVG 1.1//EN" "http://www.w3.org/Graphics/SVG/1.1/DTD/svg11.dtd"><svg t="1515598713257" class="icon" style="" viewBox="0 0 1024 1024" version="1.1" xmlns="http://www.w3.org/2000/svg" p-id="5613" xmlns:xlink="http://www.w3.org/1999/xlink" width="60" height="60"><defs><style type="text/css"></style></defs><path d="M869.68082 400.150586c-2.792603-5.605671-11.603269-18.830881-33.318849-20.485567-0.674359-0.039909-1.330298-0.080841-2.025123-0.080841l-223.599568-1.410116L668.270625 94.469582c0.171915-0.786922 0.292666-1.593288 0.382716-2.378164 2.015913-17.763572-1.593288-31.836079-10.736529-41.85834-7.65126-8.407484-18.539238-13.024641-30.656207-13.024641-13.891382 0-25.969465 6.088672-29.325909 7.964392a28.182876 28.182876 0 0 0-7.902993 6.431479L159.83787 556.648896a23.933085 23.933085 0 0 0-1.865487 2.461051c-6.622838 9.717316-10.927887 25.221428-3.165086 39.476084 3.972475 7.299243 14.223956 19.517519 38.207183 19.517519 1.13894 0 2.328022-0.039909 3.598968-0.080841l197.962677-0.160659-110.538558 317.536006a26.587542 26.587542 0 0 0-1.309832 5.604648c-0.585331 4.496407-1.562589 20.141736 9.878998 32.845059 7.520277 8.327666 18.327414 12.9438 30.464848 12.9438 7.440459 0 15.313777-1.694595 24.064069-5.121647a28.855188 28.855188 0 0 0 10.293437-6.895037l504.721223-529.884323a29.66974 29.66974 0 0 0 2.923586-3.608177c3.377934-5.000897 13.729699-22.705118 4.606924-41.131793z" fill="#4382BC" p-id="5614"></path><path d="M862.149287 444.889533a29.66974 29.66974 0 0 0 2.923586-3.608178c3.377934-4.999874 13.729699-22.704095 4.606924-41.130769-2.792603-5.605671-11.603269-18.830881-33.31885-20.485567-0.674359-0.039909-1.330298-0.080841-2.025123-0.080841l-223.599567-1.410116L668.270625 94.469582c0.171915-0.786922 0.292666-1.593288 0.382716-2.378164 2.015913-17.763572-1.593288-31.836079-10.736529-41.85834-0.100284-0.100284-0.222057-0.181125-0.322341-0.281409l-382.951879 524.037151h268.400936L327.043033 986.347448c6.290263-0.484024 12.842493-1.835811 20.091594-4.677532 1.411139-0.544399 2.701528-1.331321 3.991917-2.096755l7.037277-5.585205 503.985466-529.098423z" fill="#E68C49" p-id="5615"></path></svg>