<?xml version="1.0" standalone="no"?><!DOCTYPE svg PUBLIC "-//W3C//DTD SVG 1.1//EN" "http://www.w3.org/Graphics/SVG/1.1/DTD/svg11.dtd"><svg t="1515598780296" class="icon" style="" viewBox="0 0 1024 1024" version="1.1" xmlns="http://www.w3.org/2000/svg" p-id="6306" xmlns:xlink="http://www.w3.org/1999/xlink" width="60" height="60"><defs><style type="text/css"></style></defs><path d="M10.723226 144.111189s397.276119-313.342498 1004.375033 0c0 0 72.936149 503.70815-502.187516 875.04141 0 0-546.95-308.041772-502.187517-875.04141z" fill="#F76566" p-id="6307"></path><path d="M508.418428 716.66124m-60.886718 0a60.886719 60.886719 0 1 0 121.773437 0 60.886719 60.886719 0 1 0-121.773437 0Z" fill="#FFFFFF" p-id="6308"></path><path d="M566.313 539.022447c0 26.615171-22.907733 48.190559-51.16531 48.190559h-8.18645c-28.257577 0-51.16531-21.575388-51.16531-48.190559V220.964554c0-26.615171 22.907733-48.190559 51.16531-48.190559h8.18645c28.257577 0 51.16531 21.575388 51.16531 48.190559v318.057893z" fill="#FFFFFF" p-id="6309"></path></svg>