<?xml version="1.0" standalone="no"?><!DOCTYPE svg PUBLIC "-//W3C//DTD SVG 1.1//EN" "http://www.w3.org/Graphics/SVG/1.1/DTD/svg11.dtd"><svg t="1515598838218" class="icon" style="" viewBox="0 0 1024 1024" version="1.1" xmlns="http://www.w3.org/2000/svg" p-id="7628" xmlns:xlink="http://www.w3.org/1999/xlink" width="60" height="60"><defs><style type="text/css"></style></defs><path d="M519.56742189 931.1141214c-234.52955557 0-425.59183526-191.06228137-425.59183527-425.59183525s191.06228137-425.59183526 425.59183527-425.59183525 425.59183526 191.06228137 425.59183525 425.59183525-191.06228137 425.59183526-425.59183525 425.59183525z" fill="#F9832D" p-id="7629"></path><path d="M698.2796689 340.24978151c-14.89268809-7.14364653-32.81234292-0.72647203-39.83491081 14.04513575L519.68850054 647.54766948 380.81116599 354.41599593c-7.14364653-14.89268809-24.70006701-21.18878225-39.83491244-14.04513574-14.89268809 7.14364653-21.18878225 24.70006701-14.04513572 39.83491076l165.2725046 349.19113948c5.3274648 10.89708865 15.86131746 17.31426317 27.48487811 16.95102546 11.26032465 0 22.15741328-6.29609587 27.48487812-16.95102546l165.39358496-349.19113948c6.90148919-14.89268809 0.48431469-32.81234292-14.28729472-39.95598944z" fill="#FFFFFF" p-id="7630"></path></svg>