<?xml version="1.0" standalone="no"?><!DOCTYPE svg PUBLIC "-//W3C//DTD SVG 1.1//EN" "http://www.w3.org/Graphics/SVG/1.1/DTD/svg11.dtd"><svg t="1515598870325" class="icon" style="" viewBox="0 0 1024 1024" version="1.1" xmlns="http://www.w3.org/2000/svg" p-id="8340" xmlns:xlink="http://www.w3.org/1999/xlink" width="60" height="60"><defs><style type="text/css"></style></defs><path d="M535.097744 429.233083c-11.548872 0-23.097744 1.924812-32.721804 7.699248l-82.766917-80.842105c-9.62406-9.62406-25.022556-9.62406-34.646617 0s-9.62406 25.022556 0 34.646616l82.766917 80.842105c-3.849624 9.62406-5.774436 19.24812-5.774436 30.796993 0 40.421053 32.721805 73.142857 73.142857 73.142857 40.421053 0 73.142857-32.721805 73.142858-73.142857 0-38.496241-32.721805-73.142857-73.142858-73.142857z m0 98.165413c-13.473684 0-25.022556-11.548872-25.022556-25.022556 0-5.774436 1.924812-11.548872 5.774436-17.323308 3.849624-5.774436 11.548872-7.699248 17.323308-7.699249 13.473684 0 25.022556 11.548872 25.022557 25.022557 1.924812 15.398496-9.62406 25.022556-23.097745 25.022556z m-5.774436-402.285714c-211.729323 0-384.962406 173.233083-384.962406 384.962406s173.233083 384.962406 384.962406 384.962406 384.962406-173.233083 384.962406-384.962406-173.233083-384.962406-384.962406-384.962406z m248.300752 525.473684l44.270677 25.022557c-57.744361 102.015038-167.458647 169.383459-292.571429 169.383458S294.496241 775.699248 236.75188 673.684211l42.345864-25.022557c11.548872-5.774436 15.398496-21.172932 9.624061-32.721804-5.774436-11.548872-21.172932-15.398496-32.721805-9.624061l-38.496241 23.097745c-15.398496-38.496241-23.097744-78.917293-23.097744-121.263158 0-50.045113 11.548872-96.240602 28.87218-138.586466l40.421053 23.097744c3.849624 1.924812 7.699248 3.849624 11.548872 3.849624 7.699248 0 17.323308-3.849624 21.172933-11.548872 5.774436-11.548872 1.924812-26.947368-9.624061-32.721804l-42.345864-23.097745c55.819549-88.541353 153.984962-148.210526 263.699248-155.909774v48.1203c0 13.473684 11.548872 25.022556 25.022556 25.022557s25.022556-11.548872 25.022557-25.022557V175.157895c105.864662 9.62406 200.180451 67.368421 254.075188 153.984962L769.924812 354.165414c-11.548872 5.774436-15.398496 21.172932-9.62406 32.721804 3.849624 7.699248 13.473684 11.548872 21.172932 11.548872 3.849624 0 7.699248-1.924812 11.548872-3.849624l42.345865-25.022556c19.24812 42.345865 30.796992 90.466165 30.796993 138.586466 0 42.345865-7.699248 84.691729-23.097745 123.18797l-40.421052-23.097744c-11.548872-5.774436-26.947368-1.924812-32.721805 9.62406-7.699248 11.548872-3.849624 26.947368 7.699248 32.721804z" fill="#4AC2EF" p-id="8341"></path></svg>