<?xml version="1.0" standalone="no"?><!DOCTYPE svg PUBLIC "-//W3C//DTD SVG 1.1//EN" "http://www.w3.org/Graphics/SVG/1.1/DTD/svg11.dtd"><svg t="1515599103099" class="icon" style="" viewBox="0 0 1024 1024" version="1.1" xmlns="http://www.w3.org/2000/svg" p-id="12965" xmlns:xlink="http://www.w3.org/1999/xlink" width="60" height="60"><defs><style type="text/css"></style></defs><path d="M910.562571 13.799047 113.442263 13.799047c-55.028339 0-99.642623 44.614285-99.642623 99.642623l0 797.120308c0 55.02469 44.614285 99.637758 99.642623 99.637758l797.120308 0c55.02469 0 99.637758-44.613068 99.637758-99.637758L1010.200329 113.441671C1010.200329 58.413332 965.58726 13.799047 910.562571 13.799047zM784.695068 592.103805c-0.152039 83.137284-202.088843 219.293561-272.698124 235.196826C440.58368 811.398582 239.157727 675.242305 239.303684 592.103805L239.303684 251.237535l273.003418-54.538165L743.081422 242.905805l1.649318 0 0 0.332053 39.965544 7.999677L784.696284 592.103805z" p-id="12966" fill="#f4ea2a"></path><path d="M512.263316 242.905805l-232.994087 46.549435 0 222.926682 0.260291 0 27.19428 0 205.273145 0 0 268.719571c60.264557-13.580111 232.608517-129.784024 232.733797-200.730224l0-67.989348L512.263316 512.381922 512.263316 242.905805z" p-id="12967" fill="#f4ea2a"></path></svg>