<?xml version="1.0" standalone="no"?><!DOCTYPE svg PUBLIC "-//W3C//DTD SVG 1.1//EN" "http://www.w3.org/Graphics/SVG/1.1/DTD/svg11.dtd"><svg t="1515599019189" class="icon" style="" viewBox="0 0 1024 1024" version="1.1" xmlns="http://www.w3.org/2000/svg" p-id="11502" xmlns:xlink="http://www.w3.org/1999/xlink" width="60" height="60"><defs><style type="text/css"></style></defs><path d="M907.222 100.208c-95.407-63.302-227.969-68.222-322.34-12.038-41.813 24.854-60.843 35.859-74.954 35.859-13.593 0-33.14-9.321-74.435-35.6-88.934-56.442-219.294-52.041-317.162 10.874-61.879 39.743-161.429 136.315-133.597 336.967 40.13 289.718 264.475 442.732 394.576 508.107 25.374 12.686 75.988 34.046 130.878 34.046 41.296 0 84.663-11.263 128.937-33.399 130.619-65.375 355.739-218.388 395.999-508.754 27.703-200.137-68.222-296.449-127.901-336.062zM729.354 577.503h-160.911v161.040c0 31.328-25.374 56.701-56.701 56.701s-56.701-25.374-56.701-56.701v-161.040h-160.911c-31.328 0-56.701-25.374-56.701-56.701s25.374-56.701 56.701-56.701h160.911v-160.911c0-31.328 25.374-56.701 56.701-56.701s56.701 25.374 56.701 56.701v160.911h160.911c31.328 0 56.701 25.374 56.701 56.701s-25.374 56.701-56.701 56.701z" fill="#66AA33" p-id="11503"></path></svg>