<?xml version="1.0" standalone="no"?><!DOCTYPE svg PUBLIC "-//W3C//DTD SVG 1.1//EN" "http://www.w3.org/Graphics/SVG/1.1/DTD/svg11.dtd"><svg t="1515599047641" class="icon" style="" viewBox="0 0 1024 1024" version="1.1" xmlns="http://www.w3.org/2000/svg" p-id="12220" xmlns:xlink="http://www.w3.org/1999/xlink" width="60" height="60"><defs><style type="text/css"></style></defs><path d="M512 498.162162m-498.162162 0a498.162162 498.162162 0 1 0 996.324324 0 498.162162 498.162162 0 1 0-996.324324 0Z" fill="#2990CB" p-id="12221"></path><path d="M318.27027 691.891892h387.45946a27.675676 27.675676 0 0 0 27.675675-27.675676h55.351352a83.027027 83.027027 0 0 1-83.027027 83.027027H318.27027a83.027027 83.027027 0 0 1-83.027027-83.027027h55.351352a27.675676 27.675676 0 0 0 27.675675 27.675676z" fill="#FFFFFF" p-id="12222"></path><path d="M636.540541 415.135135H622.702703v55.351351a82.473514 82.473514 0 0 1-29.668325 63.128217c81.449514 15.36 150.694054 53.331027 195.722379 104.364973V747.243243h-3.155027c-12.260324-59.862486-63.571027-110.813405-135.223352-139.928216V719.567568a27.675676 27.675676 0 0 1-55.351351 0v-129.300757a383.750919 383.750919 0 0 0-166.054054 0V719.567568a27.675676 27.675676 0 0 1-55.351351 0v-112.252541C301.969297 636.429838 250.658595 687.380757 238.39827 747.243243H235.243243v-109.263567c45.028324-51.033946 114.272865-89.004973 195.722379-104.364973A82.473514 82.473514 0 0 1 401.297297 470.486486v-55.351351h-13.837838a69.106162 69.106162 0 1 1-2.269405-138.156973A138.267676 138.267676 0 0 1 512 193.72973a138.267676 138.267676 0 0 1 126.809946 83.248432A69.106162 69.106162 0 0 1 636.540541 415.135135zM456.648649 470.486486c0 20.424649 11.208649 38.08173 27.675675 47.68519V525.837838h55.351352v-7.666162c16.467027-9.603459 27.675676-27.260541 27.675675-47.68519v-55.351351h-110.702702v55.351351z m152.216216-138.378378H595.027027c0-21.365622-8.302703-40.627892-21.559351-55.351351a82.777946 82.777946 0 0 0-26.291892-19.594379c-0.415135-0.19373-0.774919-0.470486-1.190054-0.664216a82.639568 82.639568 0 0 0-13.810162-4.649513c-0.913297-0.249081-1.771243-0.636541-2.712217-0.857946A82.556541 82.556541 0 0 0 512 249.081081c-6.005622 0-11.817514 0.691892-17.463351 1.909622-0.940973 0.221405-1.798919 0.608865-2.712217 0.857946-4.787892 1.190054-9.40973 2.684541-13.810162 4.649513-0.415135 0.19373-0.774919 0.470486-1.190054 0.664216a82.777946 82.777946 0 0 0-26.291892 19.594379A82.418162 82.418162 0 0 0 428.972973 332.108108h-13.837838a13.837838 13.837838 0 0 0 0 27.675676h193.72973a13.837838 13.837838 0 0 0 0-27.675676z" fill="#FFFFFF" p-id="12223"></path></svg>