<?xml version="1.0" standalone="no"?><!DOCTYPE svg PUBLIC "-//W3C//DTD SVG 1.1//EN" "http://www.w3.org/Graphics/SVG/1.1/DTD/svg11.dtd"><svg t="1515599276317" class="icon" style="" viewBox="0 0 1728 1024" version="1.1" xmlns="http://www.w3.org/2000/svg" p-id="16241" xmlns:xlink="http://www.w3.org/1999/xlink" width="101.25" height="60"><defs><style type="text/css"></style></defs><path d="M 640.128 224 c -242.304 115.136 -408.128 414.656 -384 512 c 35.264 142.208 448 192 448 192 l -128 64 s -506.368 -56.96 -576.128 -264.256 c 0 0 209.856 -684.8 1040 -695.296 c 426.304 -5.44 611.072 206.848 611.072 206.848 l 77.44 103.488 S 1196.74 -40.576 640.128 224 Z m 154.432 131.712 c 67.136 -19.456 135.36 -3.968 188.096 36.096 a 243.584 243.584 0 0 1 87.936 136.064 c 32.192 129.856 -39.168 263.36 -159.36 298.176 c -120.192 34.816 -243.776 -42.24 -275.968 -172.16 c -32.256 -129.856 39.104 -263.36 159.296 -298.176 Z" fill="#1296db" p-id="16242"></path></svg>