<?xml version="1.0" standalone="no"?><!DOCTYPE svg PUBLIC "-//W3C//DTD SVG 1.1//EN" "http://www.w3.org/Graphics/SVG/1.1/DTD/svg11.dtd"><svg t="1515599318696" class="icon" style="" viewBox="0 0 1024 1024" version="1.1" xmlns="http://www.w3.org/2000/svg" p-id="17173" xmlns:xlink="http://www.w3.org/1999/xlink" width="60" height="60"><defs><style type="text/css"></style></defs><path d="M882.871724 436.764853H560.281094a15.914031 15.914031 0 0 1-15.916031-15.916031 15.916031 15.916031 0 0 1 15.916031-15.918031h322.58863c60.266118 0 109.296213-49.030096 109.296214-109.298214v-16.978033c0-60.266118-49.030096-109.298213-109.296214-109.298213H560.281094a15.914031 15.914031 0 0 1-15.916031-15.916031 15.916031 15.916031 0 0 1 15.916031-15.918031h322.58863c77.818152 0 141.130276 63.310124 141.130276 141.132275v16.978033c0.002 77.820152-63.310124 141.132276-141.128276 141.132276zM512.737001 210.536411h-83.240162a15.916031 15.916031 0 0 1 0-31.834062h83.238162a15.916031 15.916031 0 0 1 15.916032 15.916031 15.914031 15.914031 0 0 1-15.914032 15.918031zM512.737001 125.846246h-83.240162a15.918031 15.918031 0 1 1 0-31.836062h83.238162a15.916031 15.916031 0 0 1 15.916032 15.918031 15.914031 15.914031 0 0 1-15.914032 15.918031z" fill="#4D4D4D" p-id="17174"></path><path d="M581.655136 185.890363c0 20.59204-16.770033 37.342073-37.382073 37.342073h-46.710091c-10.32802 0-18.700037-8.356016-18.700037-18.670036V99.988195c0-10.31202 8.372016-18.674036 18.700037-18.668036h46.714091c20.60604-0.006 37.378073 16.746033 37.384073 37.340073l-0.006 67.230131z" fill="#EA5653" p-id="17175"></path><path d="M508.230993 204.5644V99.988195c0-10.31202 8.372016-18.674036 18.700036-18.668036h-29.366057c-10.32802-0.006-18.700037 8.356016-18.700037 18.668036v104.576205c0 10.31602 8.372016 18.670036 18.700037 18.670036h29.366057c-10.32802-0.002-18.700037-8.354016-18.700036-18.670036z" fill="" p-id="17176"></path><path d="M238.418466 911.22978c0 17.368034-14.088028 31.448061-31.466062 31.448061H131.440257c-17.378034 0-31.466061-14.078027-31.466062-31.448061v-155.134303c0-17.366034 14.088028-31.446061 31.466062-31.446062h75.512147c17.378034 0 31.466061 14.082028 31.466062 31.446062v155.134303z" fill="#706F67" p-id="17177"></path><path d="M197.730386 732.717431a15.920031 15.920031 0 0 0-15.918031 15.918031v194.044379h25.140049c2.300004 0 4.534009-0.262001 6.696013-0.730001v-193.312378a15.918031 15.918031 0 0 0-15.918031-15.920031zM140.662275 732.717431a15.920031 15.920031 0 0 0-15.918031 15.918031v193.312378c2.160004 0.468001 4.396009 0.730001 6.698013 0.730001H156.580306v-194.044379a15.918031 15.918031 0 0 0-15.918031-15.916031z" fill="#4D4D4D" p-id="17178"></path><path d="M915.179787 911.22978c0 17.368034-14.088028 31.448061-31.466061 31.448061H808.201579c-17.378034 0-31.466061-14.078027-31.466062-31.448061v-155.134303c0-17.366034 14.086028-31.446061 31.466062-31.446062h75.512147c17.376034 0 31.466061 14.082028 31.466061 31.446062v155.134303z" fill="#706F67" p-id="17179"></path><path d="M874.491708 732.717431a15.920031 15.920031 0 0 0-15.918031 15.918031v194.044379h25.140049c2.300004 0 4.534009-0.262001 6.694013-0.730001v-193.312378a15.916031 15.916031 0 0 0-15.916031-15.920031zM817.421597 732.717431a15.920031 15.920031 0 0 0-15.918032 15.918031v193.312378c2.158004 0.468001 4.394009 0.730001 6.698014 0.730001h25.136049v-194.044379a15.914031 15.914031 0 0 0-15.916031-15.916031z" fill="#4D4D4D" p-id="17180"></path><path d="M864.863689 570.445114h120.120235c12.760025 0 23.102045-10.33602 23.102045-23.086045v-32.322063c0-12.750025-10.34002-23.086045-23.102045-23.086045H23.100045c-12.758025 0-23.100045 10.33602-23.100045 23.086045v32.322063c0 12.752025 10.34202 23.086045 23.100045 23.086045h97.07619" fill="#D8AC55" p-id="17181"></path><path d="M23.100045 570.445114c-12.758025 0-23.100045-10.33402-23.100045-23.086045v-32.322063c0-12.750025 10.34202-23.086045 23.100045-23.086045h961.881879c12.760025 0 23.102045 10.33602 23.102045 23.086045v32.322063c0 12.752025-10.34002 23.086045-23.102045 23.086045H23.100045z" fill="#FFD267" p-id="17182"></path><path d="M43.886086 547.359069v-32.322063c0-12.750025 10.34202-23.086045 23.100045-23.086045H23.100045c-12.758025 0-23.100045 10.33602-23.100045 23.086045v32.322063c0 12.752025 10.34202 23.086045 23.100045 23.086045h43.886086c-12.758025 0-23.100045-10.33402-23.100045-23.086045z" fill="" p-id="17183"></path><path d="M971.099897 652.011273c0-58.550114-47.828093-106.016207-106.814209-106.016207H143.798281c-58.992115 0-106.816209 47.466093-106.816209 106.016207v135.872266c0 18.156035 14.726029 32.872064 32.894064 32.872064h868.335696c18.164035 0 32.892064-14.716029 32.892065-32.872064-0.004 0-0.004-129.104252-0.004-135.872266z" fill="#FFD267" p-id="17184"></path><path d="M938.209832 755.413475H69.874136c-18.164035 0-32.894064-14.716029-32.894064-32.872064v65.342128c0 18.156035 14.726029 32.872064 32.894064 32.872064h868.335696c18.164035 0 32.892064-14.716029 32.892065-32.872064V722.541411c-0.002 18.154035-14.726029 32.872064-32.892065 32.872064z" fill="" p-id="17185"></path><path d="M210.450411 570.445114c-9.020018 0-17.674035-3.582007-24.052047-9.958019l-41.884082-41.860082c-12.374024-12.362024-13.342026-32.092063-2.238004-45.608089l126.624247-154.146301a34.010066 34.010066 0 0 1 26.288052-12.424024h417.264815c10.16602 0 19.798039 4.544009 26.260051 12.384024l127.062248 154.202301c11.136022 13.514026 10.18002 33.272065-2.206004 45.652089l-41.830082 41.802082a34.018066 34.018066 0 0 1-24.052047 9.956019H210.450411z" fill="#9BD3DD" p-id="17186"></path><path d="M236.704462 756.709478c0 5.19001-4.210008 9.400018-9.404018 9.400018h-116.600228a9.402018 9.402018 0 0 1-9.402018-9.400018V713.481394a9.400018 9.400018 0 0 1 9.402018-9.398019h116.600228a9.400018 9.400018 0 0 1 9.404018 9.398019v43.228084zM913.661784 756.709478c0 5.19001-4.214008 9.400018-9.406018 9.400018h-116.600228a9.404018 9.404018 0 0 1-9.402018-9.400018V713.481394a9.404018 9.404018 0 0 1 9.402018-9.398019h116.600228a9.402018 9.402018 0 0 1 9.406018 9.398019v43.228084z" fill="#FFFF20" p-id="17187"></path><path d="M279.594546 654.615279a15.918031 15.918031 0 1 0 0-31.834063H41.13008a105.186205 105.186205 0 0 0-4.146008 29.230057v2.604006h242.610474zM708.377384 638.697247a15.916031 15.916031 0 0 0 15.916031 15.918032H971.101897v-2.604006c0-10.14402-1.464003-19.940039-4.144008-29.230057H724.293415a15.914031 15.914031 0 0 0-15.916031 15.916031z" fill="#D8AC55" p-id="17188"></path><path d="M865.777691 473.034924l-127.062248-154.202301a34.034066 34.034066 0 0 0-26.260051-12.384024H295.188577c-10.18402 0-19.830039 4.560009-26.288052 12.424024l-126.624247 154.146301c-11.100022 13.514026-10.13602 33.246065 2.238004 45.608089l25.920051 25.908051c0.846002-1.608003 1.798004-3.166006 2.904006-4.64201l115.752226-154.146301c5.904012-7.866015 14.722029-12.424024 24.030047-12.424024h381.436745c9.294018 0 18.098035 4.544009 24.006046 12.386024l116.150227 154.202302c1.120002 1.488003 2.084004 3.060006 2.934006 4.680009l25.920051-25.904051c12.388024-12.378024 13.346026-32.138063 2.210004-45.652089z" fill="" p-id="17189"></path><path d="M617.465206 762.83949a8.798017 8.798017 0 0 1-8.794017 8.792017H399.41278a8.794017 8.794017 0 0 1-8.794017-8.792017v-79.132155a8.794017 8.794017 0 0 1 8.794017-8.792017h209.256409a8.794017 8.794017 0 0 1 8.794017 8.792017v79.132155h0.002z" fill="#FFFFFF" p-id="17190"></path><path d="M472.110922 510.504997H253.956496a15.914031 15.914031 0 0 0-15.916031 15.916031 15.916031 15.916031 0 0 0 15.916031 15.918031h202.236395v28.106055h31.834062V526.421028a15.916031 15.916031 0 0 0-15.916031-15.916031zM754.127473 510.504997H535.973047a15.916031 15.916031 0 1 0 0 31.834062h202.236395v28.106055h31.832062V526.421028a15.910031 15.910031 0 0 0-15.914031-15.916031z" fill="#4D4D4D" p-id="17191"></path></svg>