<?xml version="1.0" standalone="no"?><!DOCTYPE svg PUBLIC "-//W3C//DTD SVG 1.1//EN" "http://www.w3.org/Graphics/SVG/1.1/DTD/svg11.dtd"><svg t="1515599352476" class="icon" style="" viewBox="0 0 1024 1024" version="1.1" xmlns="http://www.w3.org/2000/svg" p-id="17894" xmlns:xlink="http://www.w3.org/1999/xlink" width="60" height="60"><defs><style type="text/css"></style></defs><path d="M414.2496 890.3408c-6.736-4.8256-14.8672-7.216-24.3904-7.216-9.5216 0-17.6528 2.3904-24.384 7.216-6.7424 4.8112-10.0944 10.624-10.0944 17.4192 0 6.808 3.352 12.6176 10.0944 17.424 6.7312 4.8208 14.864 7.2288 24.384 7.2288 9.5232 0 17.6528-2.408 24.3904-7.2288 6.7312-4.8064 10.1024-10.616 10.1024-17.424C424.3536 900.9648 420.9808 895.152 414.2496 890.3408zM403.1168 917.2304c-3.6448 2.6096-8.064 3.9152-13.2576 3.9152-5.1216 0-9.5216-1.3056-13.1984-3.9152-3.68-2.5984-5.5136-5.7664-5.5136-9.4704 0-3.6992 1.8336-6.864 5.5136-9.4576 3.6768-2.616 8.0768-3.9168 13.1984-3.9168 5.1936 0 9.6112 1.3008 13.2576 3.9168 3.648 2.5936 5.4672 5.76 5.4672 9.4576C408.584 911.464 406.7648 914.632 403.1168 917.2304zM422.0816 313.7664c-16.8656 0-30.5376 13.6784-30.5376 30.5472 0 16.8736 13.672 30.5456 30.5376 30.5456 16.864 0 30.536-13.672 30.536-30.5456C452.6176 327.4448 438.9456 313.7664 422.0816 313.7664zM594.1936 313.7664c-16.8656 0-30.5376 13.6784-30.5376 30.5472 0 16.8736 13.672 30.5456 30.5376 30.5456s30.536-13.672 30.536-30.5456C624.7296 327.4448 611.0592 313.7664 594.1936 313.7664zM444.0624 883.1248l-15.7712 0 0 49.2864 59.1216 0 0-11.2656-43.3488 0L444.064 883.1248zM287.4544 859.392c38.696-28.1456 132.9424-8.496 177.4 0 1.6128-1.4-2.4384-2.8992-3.3296-3.3248-15.704-7.7008-33.3968-14.616-43.3088-26.6048 25.4624-8.4816 48.7184-17.1152 78.2912-14.9648 22.832 1.664 42.16 9.8208 57.4624 17.4544 5.8912 2.9424 12.3008 7.8352 16.6544 8.3152 6.16 0.6832 14.6336-3.264 19.16-4.1536-27.5216-13.6544-51.1792-29.9392-88.288-32.424-44.5088-2.9808-85.9056 8.776-124.9232 19.9488-39.2864 11.248-77.3056 22.3568-110.7728 35.752 3.9872 5.4336 6.008 12.8416 9.9936 18.2864C276.9472 868.9472 281.984 863.3664 287.4544 859.392zM491.3504 932.4112l15.7712 0 0-49.2864-15.7712 0L491.3504 932.4112zM325.632 285.8384c-0.4624 6.4608-0.7104 12.9936-0.7104 19.5984 0 124.224 83.2704 224.9344 185.9952 224.9344 102.7216 0 185.9904-100.7104 185.9904-224.9344 0-7.4016-0.304-14.7184-0.8832-21.9376 5.6512-7.8432 10.0272-16.224 11.5792-24.6 31.6512-170.712-114.784-207.336-174.8384-215.1616 1.9904-2.2976 3.1328-4.9024 3.1328-7.6704 0-9.2032-12.4304-16.6624-27.7568-16.6624-15.3312 0-27.76 7.4592-27.76 16.6624 0 2.624 1.0384 5.096 2.8368 7.304-55.8608 6.992-185.3776 41.8864-168.8512 215.528C315.1936 267.5936 319.712 276.9648 325.632 285.8384zM510.9152 502.6016c-88.7136 0-160.944-84.9056-163.6976-190.8896 7.9008 7.9952 14.1008 13.1616 14.1008 13.1616s70.6784-30.9248 146.728-30.9248c75.0688 0 143.7952 30.9248 143.7952 30.9248s10.7376-7.1456 22.8384-18.0992C674.0816 415.0464 600.9952 502.6016 510.9152 502.6016zM447.0672 136.0416l122.1392 0 0 44.4304-122.1392 0L447.0672 136.0416zM510.0464 204.9328c80.9904 0.0464 158.008 20.6944 181.96 53.5696-56.1264-22.8784-123.744-34.0352-185.832-31.9456-100.1568 3.3712-185.9408 31.9456-185.9408 31.9456C364.2192 220.8432 438.6784 204.8928 510.0464 204.9328zM314.4848 913.4032l-21.1728-30.2784-15.7776 0 0 49.2864 15.7664 0 0-22.3232 16.2528 22.3232 9.8576 0 16.2624-22.3232 0 22.3232 15.7584 0 0-49.2864-15.784 0L314.4848 913.4032zM677.9136 884.1184c-3.6256 7.0416-8.5744 13.7696-14.8784 20.2496l12.7584 0c3.7696-3.7968 6.056-7.0928 8.416-11.0512 2.2784 3.96 4.8032 7.3536 8.4208 11.0512l12.8256 0c-6.2912-6.48-11.3312-13.208-14.872-20.2496L677.9136 884.1184zM701.0464 909.1008l-10.3824 0 0-5.1408-12.9008 0 0 5.1408-13.304 0 0 2.8288 26.4336 0-8.408 8.8432-2.5312-2.0096-13.368 0 16.5232 13.2672 13.368 0-6.92-5.552 14.16-14.6528c0.472-0.5632 0.3168-1.2816-0.1616-1.8464C702.9328 909.4048 702.072 909.1008 701.0464 909.1008zM638.5728 883.3952l-11.8784 0 0 7.3008-19.512 0 0 2.9296 19.512 0 0 38.6064 11.8784 0 0-38.6064 20.224 0 0-2.9296-20.224 0L638.5728 883.3952zM736.296 886.1696c-1.0224-0.6128-2.3632-0.968-3.8608-0.968l-25.0928 0 0 46.8304 11.88 0 0-43.9488 3.9328 0c0.7056 0 1.4128 0.096 1.8848 0.456 0.5552 0.3072 0.7136 0.6704 0.624 1.0784l-2.9008 14.344-1.8144 0 0 2.8272 3.6992 0c0.9488 0 1.7328 0.4608 1.7328 0.976l0 16.5536c0 0.5632-0.784 0.8784-1.7328 0.8784l-3.6992 0 0 2.9248 10.784 0c2.992 0 5.4256-1.3888 5.4256-3.0336l0-18.0432c0-1.1248-1.176-2.2096-2.9856-2.7264l3.3024-15.9376C737.712 887.56 737.1568 886.8352 736.296 886.1696zM619.7664 837.7776c-57.8032 2.68-121.5328 16.5024-178.2352 5.8176 10.6928 5.0032 21.296 15.24 34.1504 16.6272 17.1776 1.856 37.84-2.5968 57.4672-4.1552 45.3968-3.6208 104.0912-10.9408 145.752-2.4976 9.3968 1.9024 28.7952 8.2304 46.3232 21.016l39.7744 3.0928C728.5936 849.6848 665.352 835.6576 619.7664 837.7776zM905.9648 803.4752c-22.9248-75.88-49.1584-205.4352-58.7312-243.7376-5.8736-23.4928-110.336-58.7312-152.7008-58.7312 0 0-45.336 80.5312-182.0672 82.2208-94.152 1.1664-176.1968-82.2208-176.1968-82.2208-42.6272 0-155.64 32.3008-158.576 58.7312-0.3664 3.3024-45.8128 166.9984-64.6048 243.7376-38.176 227.3584 67.5408 196.7536 208.4976 196.7536l358.2656 0C841.36 1000.2288 958.824 1051.3872 905.9648 803.4752zM811.9952 970.8608c-73.4192-6.3728-493.3488-2.9376-581.4464 0-32.2848 1.0784 0-411.1232 0-411.1232s23.4928-22.512 64.6048-23.4928c21.96 38.176 11.7456 176.1952 52.8592 199.6896 44.5296 25.4416 290.7216 38.1728 340.6448-5.8736 32.3008-52.8592 41.1088-193.816 41.1088-193.816 26.344-14.6848 25.8384 12.7088 52.8592 11.7472C818.4512 546.7088 820.8048 853.3984 811.9952 970.8608zM592.3968 908.8896l11.8768 0-5.1904-11.6128-11.9632 0L592.3968 908.8896zM584.448 932.032l11.8768 0c3.856-5.1904 6.4592-12.1312 8.0256-19.4304l-11.88 0C591.056 919.992 588.4608 925.6096 584.448 932.032zM586.1792 883.2976l5.1152 10.7872 11.8736 0-5.032-10.7872L586.1792 883.2976zM609.8608 915.9904c0 4.0544-0.7088 10.7408-2.5968 16.04l11.728 0c1.728-4.7312 2.1968-12.1808 2.1968-16.04l0-19.4336-11.408 0L609.8608 915.9904zM656.1984 896.5584l-11.408 0 0 19.4336c0 3.8592 0.4768 11.3088 2.2032 16.04l11.7168 0c-1.9584-5.3008-2.5936-11.9856-2.5936-16.04L656.1984 896.5584zM559.3376 911.0336l-32.4752-27.9088-15.8 0 0 49.2864 15.7664 0 0-27.9552 32.5072 27.9552 15.7696 0 0-49.2864-15.7696 0L559.336 911.0336z" p-id="17895"></path></svg>