<?xml version="1.0" standalone="no"?><!DOCTYPE svg PUBLIC "-//W3C//DTD SVG 1.1//EN" "http://www.w3.org/Graphics/SVG/1.1/DTD/svg11.dtd"><svg t="1515599415804" class="icon" style="" viewBox="0 0 1024 1024" version="1.1" xmlns="http://www.w3.org/2000/svg" p-id="18591" xmlns:xlink="http://www.w3.org/1999/xlink" width="60" height="60"><defs><style type="text/css"></style></defs><path d="M547.427249 757.898358v66.827461a31.227786 31.227786 0 0 1-35.599675 28.105007 31.227786 31.227786 0 0 1-35.599676-28.105007v-66.827461a82.441354 82.441354 0 1 1 71.511629 0z m371.922928-173.001933v-99.304358a99.304358 99.304358 0 0 0-101.802582-96.18158H206.107552A99.304358 99.304358 0 0 0 104.304971 485.592067v442.185445a98.992081 98.992081 0 0 0 101.802581 96.18158h611.440043a99.304358 99.304358 0 0 0 101.802582-96.18158v-31.227786h-133.342645V843.150213h133.342645v-71.823907h-133.342645V718.23907h133.342645v-79.943131h-133.342645v-53.399514z" fill="#1499E9" p-id="18592"></path><path d="M299.790909 253.56962A160.510818 160.510818 0 0 1 459.98945 93.683357h103.676248a160.510818 160.510818 0 0 1 160.510818 160.510818v112.420029h113.66914V218.5945a218.5945 218.5945 0 0 0-218.5945-218.5945H405.340825a218.5945 218.5945 0 0 0-218.5945 218.5945v146.458314h113.044584z" fill="#1499E9" p-id="18593"></path></svg>