<?xml version="1.0" standalone="no"?><!DOCTYPE svg PUBLIC "-//W3C//DTD SVG 1.1//EN" "http://www.w3.org/Graphics/SVG/1.1/DTD/svg11.dtd"><svg t="1515599486632" class="icon" style="" viewBox="0 0 1024 1024" version="1.1" xmlns="http://www.w3.org/2000/svg" p-id="20549" xmlns:xlink="http://www.w3.org/1999/xlink" width="60" height="60"><defs><style type="text/css"></style></defs><path d="M643.2 346.2l-100.1 144h175.1c0.2-59.6-29.5-112.3-75-144z" fill="#BDD52F" p-id="20550"></path><path d="M608.6 362.4c-32.7-22.3-73-34.1-116.3-30.7-88.5 7-159.7 78.9-165.9 167.5-7.3 105.7 76.3 193.7 180.5 193.7 99.4 0 180.1-80.3 180.8-179.5h-184l104.9-151z" fill="#BDD52F" p-id="20551"></path><path d="M512 210.1C245.2 210.1 29 512 29 512s216.2 301.9 483 301.9S995 512 995 512 778.8 210.1 512 210.1z m242.5 314.6C748.2 648 648 748.2 524.7 754.5c-144.1 7.3-262.5-111.1-255.2-255.2C275.8 376 376 275.8 499.3 269.5c144.1-7.3 262.5 111.1 255.2 255.2z" fill="#BDD52F" p-id="20552"></path><path d="M507 692.9c-104.1 0-187.7-88-180.5-193.7 6.1-88.6 77.4-160.5 165.9-167.5 43.2-3.4 83.6 8.5 116.3 30.7l-104.9 151h184.1c-0.9 99.2-81.5 179.5-180.9 179.5z m211.2-202.7H543.1l100.1-144.1c45.5 31.8 75.2 84.5 75 144.1z" fill="#BDD52F" p-id="20553"></path></svg>