<?xml version="1.0" standalone="no"?><!DOCTYPE svg PUBLIC "-//W3C//DTD SVG 1.1//EN" "http://www.w3.org/Graphics/SVG/1.1/DTD/svg11.dtd"><svg t="1515599522434" class="icon" style="" viewBox="0 0 1024 1024" version="1.1" xmlns="http://www.w3.org/2000/svg" p-id="22391" xmlns:xlink="http://www.w3.org/1999/xlink" width="60" height="60"><defs><style type="text/css"></style></defs><path d="M0 391.529412v-66.258824c6.023529-15.058824 21.082353-21.082353 33.129412-27.105882 153.6-69.270588 307.2-141.552941 460.8-210.82353 12.047059-6.023529 21.082353-6.023529 33.129412 0 159.623529 72.282353 319.247059 144.564706 475.858823 216.847059 12.047059 6.023529 21.082353 15.058824 21.082353 30.117647v48.188236c0 18.070588-12.047059 30.117647-30.117647 30.117647h-36.141177v463.811764c0 27.105882-15.058824 51.2-39.152941 60.235295-21.082353 9.035294-39.152941 3.011765-60.235294 3.011764V545.129412h-692.705882v394.541176H123.482353c-15.058824 0-30.117647-9.035294-39.152941-21.082353-12.047059-12.047059-15.058824-30.117647-15.058824-48.188235V412.611765h-30.117647c-18.070588 0-33.129412-6.023529-39.152941-21.082353z m246.964706 21.082353h72.282353c9.035294 0 12.047059-3.011765 12.047059-12.047059v-45.176471c0-6.023529-3.011765-9.035294-12.047059-9.035294H174.682353c-6.023529 0-12.047059 3.011765-12.047059 9.035294v45.176471c0 9.035294 3.011765 12.047059 12.047059 12.047059h72.282353z m530.070588 0h72.282353c9.035294 0 12.047059-3.011765 12.047059-12.047059v-45.176471c0-9.035294-3.011765-12.047059-12.047059-12.047059h-144.564706c-9.035294 0-12.047059 3.011765-12.047059 12.047059v42.164706c0 9.035294 3.011765 12.047059 12.047059 12.047059 24.094118 3.011765 48.188235 3.011765 72.282353 3.011765z m-265.035294 0h72.282353c9.035294 0 12.047059-3.011765 12.047059-12.047059v-45.176471c0-6.023529-3.011765-12.047059-12.047059-12.047059h-144.564706c-9.035294 0-12.047059 3.011765-12.047059 12.047059v42.164706c0 9.035294 3.011765 12.047059 12.047059 12.047059 27.105882 3.011765 48.188235 3.011765 72.282353 3.011765z" fill="#FF8100" p-id="22392"></path><path d="M204.8 611.388235h614.4v63.247059H204.8v-63.247059z m0 102.4h614.4v63.247059H204.8v-63.247059z m0 102.4h614.4v63.247059H204.8v-63.247059z" fill="#FF8100" p-id="22393"></path></svg>