<?xml version="1.0" standalone="no"?><!DOCTYPE svg PUBLIC "-//W3C//DTD SVG 1.1//EN" "http://www.w3.org/Graphics/SVG/1.1/DTD/svg11.dtd"><svg t="1515579807482" class="icon" style="" viewBox="0 0 1024 1024" version="1.1" xmlns="http://www.w3.org/2000/svg" p-id="1892" xmlns:xlink="http://www.w3.org/1999/xlink" width="60" height="60"><defs><style type="text/css"></style></defs><path d="M386.190157 193.998236c-32.333039 5.599577-58.705239 31.24925-65.027342 63.221027-0.541895 2.890104-1.083789 5.96084-1.26442 8.850943-1.264421 13.005468 0.541895 25.469042 4.87705 36.668196 1.806315 4.515788 3.973893 9.031575 6.502735 13.1861 4.877051 8.128418 2.167578 18.605045-6.141472 23.120832-7.586523 4.154525-17.340624 1.806315-21.856412-5.418945-7.044629-11.560416-12.102311-24.385253-14.631152-38.293879-17.701887 0.541895-35.584406 6.683366-50.757452 19.508203-24.927148 21.133886-34.681249 56.537661-24.02399 87.606279 2.34821 6.683366 5.418945 12.463574 9.031575 18.063151 7.586523 11.921679 17.701887 21.314518 29.442935 27.455989l1.625684 1.083789c7.044629 4.877051 9.392838 14.45052 4.87705 22.037043-4.515788 7.405892-14.089257 10.476627-21.67578 6.322103-8.489681-4.515788-16.437467-10.295996-23.662727-16.979362-3.973893 2.34821-7.947786 5.057682-11.560417 8.128418-24.927148 21.133886-34.681249 56.537661-24.02399 87.60628 7.044629 20.230729 20.591992 35.223143 37.029459 44.615982 0.361263-0.361263 0.722526-0.903158 1.083789-1.264421 18.605045-20.772623 42.448404-32.874934 67.375551-36.848827 8.489681-1.445052 16.618098 4.515788 18.424413 13.005468 1.986947 9.212207-4.154525 18.243782-13.547363 19.688834-19.146939 3.070736-37.571353 13.1861-51.118715 30.526725-20.230729 25.830305-22.578938 62.498501-5.780209 90.496384 13.366731 22.578938 34.86188 35.765038 57.802082 39.197036 2.34821-11.741048 6.502734-23.301464 12.644205-33.958723 13.908626-24.204622 34.86188-41.003352 58.343976-50.034927 8.128418-3.070736 17.159993 1.083789 20.772623 9.031576 3.793262 8.670312-0.361263 18.605045-9.212206 22.037043-18.06315 7.044629-33.958723 20.591992-43.712825 40.461457-1.625684 3.431999-3.070736 6.863997-4.154524 10.476628-3.61263 11.199153-4.696419 22.940201-3.251367 34.500617 1.986947 16.437467 8.850944 32.333039 20.41136 44.796613 19.508203 21.133886 62.498501 33.236197 95.915329 19.327571 18.966308-7.947786 39.919563-24.746516 43.170929-45.699771V374.087846c-8.850944-1.625684-17.340624-4.335156-25.649673-8.309049-25.288411-11.741048-43.893456-31.068619-54.911978-53.647557-3.793262-7.767155-0.541895-17.159993 7.044629-21.495149 8.309049-4.515788 18.605045-1.264421 22.75957 7.22526 8.670312 17.340624 23.482096 31.971776 44.074087 39.919563 2.167578 0.903158 4.515788 1.264421 6.683365 1.986946V254.690422c-10.295996-39.919563-49.493032-68.278709-93.928382-60.692186z m27.094726 239.156112c0.903158-6.502734 7.044629-11.018522 13.547363-9.754101 5.96084 1.083789 10.295996 6.683366 9.392838 12.644205-2.34821 17.340624-10.476627 34.319986-24.746516 47.506086-8.850944 8.309049-19.327571 13.908626-30.526725 17.521256 3.793262 4.515788 7.22526 9.392838 10.115365 14.811783 21.133886 37.751984 13.547363 86.341859-17.701888 116.146058-2.709473 2.528841-5.599577 4.877051-8.489681 7.22526h-0.180631c-13.727994 4.696419-25.107779-11.199153-16.256835-22.75957 2.890104-2.167578 5.780208-4.515788 8.48968-7.405891 18.966308-20.050097 23.843359-50.576821 12.102311-75.503969-6.502734-13.727994-16.618098-23.843359-28.359146-30.526724-2.528841-1.445052-5.238314-3.070736-7.947786-4.154525-7.405892-3.070736-10.83789-11.560416-7.405892-18.785677 1.083789-2.34821 2.709473-3.973893 4.696419-5.418945 3.61263-2.709473 8.489681-3.61263 12.824837-1.986946 5.780208 2.34821 11.199153 5.238314 16.437467 8.670312 12.102311-0.541895 24.02399-4.515788 33.59746-12.463574 11.921679-9.392838 18.605045-22.398307 20.41136-35.765038z" fill="#27B9E8" p-id="1893"></path><path d="M507.393897 40.82272c-265.167049 0-479.937908 214.951491-479.937908 479.937908S242.407479 1000.698536 507.393897 1000.698536s479.937908-214.951491 479.937908-479.937908S772.560945 40.82272 507.393897 40.82272z m49.131769 229.402011h61.956606c5.599577-20.41136 23.843359-35.403775 46.061034-35.403775 26.3722 0 47.867349 21.495149 47.867348 47.867349S690.915505 330.555654 664.543306 330.555654c-22.037044 0-40.461457-14.992415-46.061034-35.403775h-61.956606v-24.927148z m0 196.527077h72.794496l61.956606-95.012171 0.180632 0.180631v-0.180631h69.723761c5.599577-20.41136 23.843359-35.403775 46.061033-35.403775 26.3722 0 47.867349 21.495149 47.867349 47.867348s-21.495149 47.867349-47.867349 47.867349c-22.037044 0-40.461457-14.992415-46.061033-35.403775h-56.35703L643.048157 491.678956h-86.522491v-24.927148z m0 105.66943h61.956606c5.599577-20.41136 23.843359-35.403775 46.061034-35.403775 26.3722 0 47.867349 21.495149 47.867348 47.867349s-21.495149 47.867349-47.867348 47.867349c-22.037044 0-40.461457-14.992415-46.061034-35.403775h-61.956606v-24.927148zM509.380843 342.838596v463.681072c-3.61263 25.288411-19.688834 61.775975-59.247133 76.76839-44.43535 16.618098-105.488799 0-129.693421-23.482096-19.688834-19.146939-30.887987-44.615982-33.416828-70.988181-31.610513-3.793262-61.595343-20.772623-81.284177-50.215558-21.856412-32.874934-24.565885-74.781443-8.850944-109.823955-20.41136-11.921679-37.571353-30.346093-47.686717-54.550715-20.050097-47.325454-4.877051-103.682484 35.945669-134.751102 2.34821-1.806315 4.877051-3.431999 7.405892-5.057682-2.528841-4.335156-5.057682-9.031575-7.044629-13.908626-20.050097-47.325454-4.877051-103.682484 35.94567-134.751103 20.050097-15.353678 43.17093-22.75957 65.930499-23.482095 0.180632-1.264421 0.180632-2.528841 0.361263-3.793262 6.683366-50.938084 48.228612-91.760804 99.166696-97.902275 56.718292-6.863997 106.391956 27.997883 122.648792 77.852178v104.40501z m216.215911 509.380843c-22.037044 0-40.461457-14.992415-46.061033-35.403775h-123.010055v-24.927148h123.010055c5.599577-20.41136 23.843359-35.403775 46.061033-35.403774 26.3722 0 47.867349 21.495149 47.867349 47.867348s-21.495149 47.867349-47.867349 47.867349z m100.973011-219.286647c-4.515788 0-8.850944-0.903158-13.005468-1.986946l-44.796613 68.820603v0.361263H556.525666v-24.927148H755.03969l37.029458-56.898923c-8.309049-8.670312-13.366731-20.230729-13.366731-33.055566 0-26.3722 21.495149-47.867349 47.867348-47.867349s47.867349 21.495149 47.867349 47.867349c0 26.191568-21.314518 47.686717-47.867349 47.686717z" fill="#27B9E8" p-id="1894"></path></svg>